# xmcd
#
# Track frame offsets:
# 150
# 27634
# 48197
#
# Disc length: 956 seconds
#
#
# Revision: 0
# Processed by: cddbd v1.5.2PL0 Copyright (c) Steve Scherf et al.
# Submitted via: FreeRIP 2.945 
#
DISCID=1f03ba03
DTITLE=CAT - Shiny Shoes
DYEAR=1900
DGENRE=
TTITLE0=Goodbye
TTITLE1=Ugly Man
TTITLE2=Freaked
EXTD=
EXTT0=
EXTT1=
EXTT2=
PLAYORDER=
